<?xml version="1.0" encoding="UTF-8"?>
<svg id="Layer_1" xmlns="http://www.w3.org/2000/svg" xmlns:xlink="http://www.w3.org/1999/xlink" version="1.1" viewBox="0 0 216 216">
  <!-- Generator: Adobe Illustrator 29.3.1, SVG Export Plug-In . SVG Version: 2.1.0 Build 151)  -->
  <defs>
    <style>
      .st0 {
        fill: none;
      }

      .st1 {
        clip-path: url(#clippath-1);
      }

      .st2 {
        clip-path: url(#clippath-2);
      }

      .st3 {
        clip-path: url(#clippath);
      }
    </style>
    <clipPath id="clippath">
      <rect class="st0" x="13" y="9.6" width="189.1" height="106.7"/>
    </clipPath>
    <clipPath id="clippath-1">
      <rect class="st0" x="35.1" y=".7" width="9.6" height="22.1"/>
    </clipPath>
    <clipPath id="clippath-2">
      <rect class="st0" x="170" y=".7" width="9.6" height="22.1"/>
    </clipPath>
  </defs>
  <g class="st3">
    <path d="M194.5,18.1v90.7H20.6V18.1h173.9,0ZM202.1,10.5H13v105.8h189.1V10.5Z"/>
  </g>
  <path d="M102.1,65h11.9v11.9h-11.9v-11.9Z"/>
  <path d="M102.1,82.6h11.9v11.9h-11.9v-11.9Z"/>
  <g class="st1">
    <path d="M35.2.8h9.3v21.5h-9.3V.8Z"/>
  </g>
  <g class="st2">
    <path d="M170,.8h9.3v21.5h-9.3V.8Z"/>
  </g>
  <g>
    <path d="M31,170.9v8c0,2.8-.9,4.9-2.5,6.3-1.7,1.4-3.6,2.1-5.9,2.1s-4.3-.7-6-2.1c-1.6-1.4-2.5-3.5-2.5-6.3v-45c0-2.7.8-4.7,2.5-6.2,1.7-1.5,3.6-2.2,6-2.2s4.2.7,5.9,2.2c1.7,1.4,2.5,3.5,2.5,6.2v14.4l13.8-19.5c.8-1.2,1.7-2.1,2.5-2.5.9-.5,2.2-.7,4-.7,2.8,0,5,.8,6.5,2.4,1.5,1.6,2.3,3.6,2.3,6s-.1,2-.4,2.9c-.3.9-.8,1.7-1.5,2.4l-9.4,10.5h8.4c5.5,0,8.3,2.8,8.4,8.5v20.9c0,2.7-.8,4.7-2.4,6.2s-3.6,2.2-5.9,2.2-4.2-.7-5.9-2.2c-1.7-1.5-2.5-3.5-2.5-6.2v-14.1c-.4-.2-1.1-.4-2-.4h-10.5l-5.3,6.2h0Z"/>
    <path d="M88,178.9c0,2.8-.8,4.9-2.5,6.3-1.7,1.4-3.6,2.1-5.9,2.1s-4.3-.7-6-2.1c-1.7-1.4-2.5-3.5-2.5-6.3v-45c0-2.7.8-4.7,2.5-6.2,1.7-1.5,3.6-2.2,6-2.2s4.2.7,5.9,2.2c1.7,1.4,2.5,3.5,2.5,6.2v45h0Z"/>
    <path d="M110.2,141.8v30.5c.4.2,1.1.4,2.1.5h3.4s14.1,0,14.1,0c1.3,0,2.2-.4,2.9-1.4.6-.9.6-5.1.2-12.5l-11.1-17.5h-10.4c-.6,0-1,.2-1.2.4h0ZM148.9,171.2c.8,11.2-4.2,16.5-15.1,15.8h-32c-4.5,0-6.8-2.9-6.8-8.6v-22.4h0v-21.6c0-1.1.2-2.6.6-4.4.4-1.8,1.6-3,3.6-3.4,2-.5,3.6-.7,4.6-.7h20c2.8-.2,6.2,2,10.2,6.5l10.8,15.9c3,4.7,4.4,8.8,4.2,12.3v10.6c-.1,0-.1,0-.1,0Z"/>
    <path d="M202.8,179.8c0,4.8-2.8,7.1-8.4,7.1h-31.6c-1.4,0-2.6-.2-3.7-.7-1-.5-1.9-1.1-2.6-1.9-.7-.8-1.2-1.7-1.6-2.7-.4-1-.5-2.1-.5-3.2s.2-2.1.5-3.1c.4-1,.9-1.9,1.6-2.7.7-.8,1.6-1.4,2.7-1.9,1.1-.5,2.3-.7,3.7-.7h21.8c2.3,0,3.4-.3,3.4-1,0-.7,0-1.4,0-2.2s0-1.6,0-2.3c0-.7-1.1-1.1-3.4-1.1h-22.3c-2.9,0-5.1-.5-6.7-1.6-1.6-1.1-2.4-3.3-2.5-6.7-.2-4,.5-8.7,2.1-14.1,1.6-5.5,4.8-9.4,9.4-11.7s9.7-3.5,15.2-3.5h12.5c1.4,0,2.7.2,3.8.8,1.1.5,2,1.1,2.8,1.9.8.8,1.3,1.7,1.7,2.7.4,1,.6,2,.6,3.1s-.1,1.9-.4,2.7c-.2.8-.7,1.5-1.5,2.4-.7.8-1.7,1.5-2.8,2-1.1.5-2.4.7-3.8.7h-18.8c-1.7,0-3,.5-3.8,1.5-.8,1-1.3,2-1.5,2.9s0,1.6.6,2.1c.6.4,1.4.6,2.6.6h21.4c6.1,0,9.3,1.5,9.4,4.5.1,3,.2,11.7.1,26.1h0Z"/>
  </g>
  <g>
    <path d="M21.4,210.3h7.2c.8,0,1.4.3,1.9.8.4.5.6,1.1.6,1.9s-.2,1.4-.6,1.9c-.4.5-1,.8-1.9.8h-10.9c-1.7,0-2.6-.9-2.6-2.7v-6.8s0-1.2,0-1.2c0-.8.3-1.6.6-2.4.4-1.2,1-2.2,1.9-3.1.9-.9,1.9-1.7,3.1-2.2,1.2-.6,2.7-.9,4.4-.9h2.9c.4,0,.8,0,1.1.2.3.1.6.4.9.6.2.2.4.5.5.9.1.3.2.6.2,1s0,.7-.2,1c-.1.3-.3.6-.5.9s-.5.4-.9.6c-.3.1-.7.2-1.1.2h-3.3c-.7,0-1.4.1-1.9.4-.5.2-1,.6-1.4,1.1s-.6,1.3-.7,2.4c0,1.1-.1,2.4,0,4.1,0,.4.4.6.9.6h0Z"/>
    <path d="M43.8,208.5s0,0,0,0h-6v4.6c0,.9-.3,1.5-.8,2-.5.4-1.1.6-1.9.6s-1.3-.2-1.9-.6c-.5-.4-.8-1.1-.8-2v-14.1c0-.9.3-1.5.8-2,.5-.4,1.1-.7,1.9-.7s1.3.2,1.9.7c.5.4.8,1.1.8,2v4.4c0,0,.2.1.4.1h5.4c0,0,.2,0,.2,0v-4.5c0-.9.3-1.5.8-2,.5-.4,1.1-.7,1.8-.7s1.3.2,1.9.7c.5.4.8,1.1.8,2v14.1c0,.9-.3,1.5-.8,2-.5.4-1.2.6-1.9.6s-1.3-.2-1.8-.6c-.5-.4-.8-1.1-.8-2v-4.5h0Z"/>
    <path d="M50.5,205.9c0-1.4.2-2.6.8-3.8.5-1.2,1.2-2.2,2.1-3.1.9-.9,1.9-1.6,3.1-2.1,1.2-.5,2.5-.8,3.8-.8s2.7.3,3.8.8c1.2.5,2.2,1.2,3.1,2.1.9.9,1.6,1.9,2.1,3.1.5,1.2.8,2.5.8,3.8s-.3,2.6-.8,3.8c-.5,1.2-1.2,2.2-2.1,3.1-.9.9-1.9,1.6-3.1,2.1-1.2.5-2.5.8-3.8.8s-2.6-.2-3.8-.8c-1.2-.5-2.2-1.2-3.1-2.1-.9-.9-1.6-1.9-2.1-3.1-.5-1.2-.8-2.5-.7-3.8ZM55.9,206c0,.6.1,1.2.3,1.7.2.5.5,1,1,1.4s.9.7,1.4.9c.5.2,1.1.3,1.7.3s1.2-.1,1.7-.3c.5-.2,1-.6,1.4-.9.4-.4.7-.9,1-1.4.2-.5.3-1.1.3-1.7s-.1-1.2-.3-1.7c-.2-.6-.6-1-1-1.4-.4-.4-.9-.7-1.4-.9-.5-.2-1.1-.4-1.7-.4s-1.2.1-1.7.4c-.5.2-1,.6-1.4.9s-.7.9-1,1.4c-.2.5-.3,1.1-.4,1.7Z"/>
    <path d="M84.6,208.1l2.9,3.6c.5.7.7,1.3.5,2-.2.6-.6,1.1-1.2,1.5-.6.4-1.2.5-1.8.4-.6,0-1.2-.5-1.8-1.1l-5.1-6.4c-.4-.7-.5-1.3-.3-1.9.1-.5.3-.9.6-1.2,0,0,0,0,0,0,.4-.4.9-.6,1.5-.6h2.3c.7,0,1.2,0,1.6,0l-2.6-2.8h-4c-.1,0-.2,0-.2.1v11.4h0c0,1.8-.9,2.7-2.7,2.7s-2.4-.9-2.4-2.7v-13.9c0-1.8.8-2.7,2.3-2.7h7.7c.7,0,1.6.5,2.7,1.5l2.3,2.9c.8,1.1,1.2,2,1.2,2.8,0,.2,0,.5,0,.6v1.4c0,.9-.3,1.5-.8,1.9-.5.4-1.1.6-1.8.6h-1,0Z"/>
    <path d="M96.4,210.2h6.6c.8,0,1.5.3,1.9.8.5.5.7,1.1.7,1.9s-.2,1.4-.7,1.9c-.4.5-1.1.8-1.9.8h-10.4c-1.2,0-1.9-.4-2.3-1.2-.2-.4-.3-.9-.3-1.5v-13.9c0-1.8.9-2.7,2.6-2.7h10.3c.8,0,1.5.3,2,.8.5.5.7,1.2.7,1.9s-.2,1.4-.7,1.9c-.5.5-1.1.8-2,.8h-6.5c-.6,0-.9.3-1.1.9v.3c0,.4.4.6.9.7h5.5c.8,0,1.5.2,1.9.8.4.5.7,1.1.7,1.8s-.2,1.3-.7,1.8c-.4.5-1.1.8-1.9.8h-5.8c-.4,0-.7.3-.8.8v.3c.1.4.5.6,1.2.5h0Z"/>
    <path d="M112.6,204.2h4.9c.3,0,.7-.2,1.1-.7l-2.1-2h-4.2v2.7c0,0,.2,0,.3,0ZM112.3,208.5v2.6h5.7c.4,0,.7-.1.9-.4.2-.3.3-.6.3-.9s0-.6-.3-.9c-.2-.3-.5-.4-.9-.4h-5.5c0,0-.1,0-.2,0h0ZM107.2,199c0-1.8.8-2.7,2.3-2.7h7.6c.7,0,1.6.5,2.7,1.5l2.5,2.2c.8,1.1,1.2,2,1.2,2.8,0,.8-.2,1.4-.4,1.9-.2.4-.6.8-1.1,1,.1,0,.3.2.7.5.3.3.6.6.8,1.1.2.4.4.9.4,1.5,0,.6,0,1.2,0,1.8.2,3.5-1.3,5.2-4.8,5h-9.6c-1.4,0-2.1-.9-2.1-2.7v-13.9h0Z"/>
    <path d="M125,205.9c0-1.4.2-2.6.8-3.8.5-1.2,1.2-2.2,2.1-3.1.9-.9,1.9-1.6,3.1-2.1,1.2-.5,2.5-.8,3.8-.8s2.6.3,3.8.8c1.2.5,2.2,1.2,3.1,2.1.9.9,1.6,1.9,2.1,3.1.5,1.2.8,2.5.8,3.8s-.3,2.6-.8,3.8c-.5,1.2-1.2,2.2-2.1,3.1-.9.9-1.9,1.6-3.1,2.1-1.2.5-2.5.8-3.8.8s-2.6-.2-3.8-.8c-1.2-.5-2.2-1.2-3.1-2.1-.9-.9-1.6-1.9-2.1-3.1-.5-1.2-.8-2.5-.8-3.8ZM130.4,206c0,.6.1,1.2.4,1.7.2.5.6,1,.9,1.4s.9.7,1.4.9c.6.2,1.1.3,1.7.3s1.2-.1,1.7-.3c.6-.2,1-.6,1.4-.9.4-.4.7-.9,1-1.4.2-.5.4-1.1.4-1.7s-.1-1.2-.4-1.7c-.2-.6-.6-1-1-1.4-.4-.4-.9-.7-1.4-.9-.5-.2-1.1-.4-1.7-.4s-1.2.1-1.7.4c-.5.2-1,.6-1.4.9s-.7.9-.9,1.4c-.2.5-.4,1.1-.4,1.7Z"/>
    <path d="M157.5,203.8v-2.5h-3.3c-1.7,0-2.5.8-2.5,2.4v.2c.1.1.3.2.7.2h4.5c.3,0,.5-.1.6-.2h0ZM157.5,209c-.1,0-.4-.1-.8-.1h0s-4.5,0-4.5,0c-.3,0-.4,0-.6.1v3.8c0,.4,0,.8-.2,1.1-.1.3-.3.6-.6.8-.2.2-.5.4-.8.5-.3.1-.6.2-1,.2-.7,0-1.4-.2-1.9-.7-.5-.5-.8-1.1-.8-2v-8c0-5.5,2.5-8.4,7.4-8.5h6.3c1.7,0,2.6.9,2.6,2.7v14c0,.8-.3,1.5-.8,1.9s-1.1.7-1.9.7-1.3-.2-1.8-.7c-.5-.4-.8-1.1-.8-1.9v-3.9h0Z"/>
    <path d="M177.3,208.1l2.9,3.6c.5.7.7,1.3.5,2-.2.6-.6,1.1-1.1,1.5-.6.4-1.2.5-1.8.4-.6,0-1.2-.5-1.8-1.1l-5.1-6.4c-.4-.7-.5-1.3-.3-1.9.1-.5.3-.9.6-1.2,0,0,0,0,0,0,.4-.4.9-.6,1.5-.6h2.3c.7,0,1.2,0,1.6,0l-2.6-2.8h-4c-.1,0-.2,0-.2.1v11.4h0c0,1.8-.9,2.7-2.7,2.7s-2.4-.9-2.4-2.7v-13.9c0-1.8.8-2.7,2.3-2.7h7.7c.7,0,1.6.5,2.7,1.5l2.3,2.9c.8,1.1,1.2,2,1.2,2.8,0,.2,0,.5,0,.6v1.4c0,.9-.3,1.5-.8,1.9-.5.4-1.1.6-1.8.6h-1,0Z"/>
    <path d="M187.4,201.3v9.6c.1,0,.4.1.7.1h1.1s4.4,0,4.4,0c.4,0,.7-.1.9-.4.2-.3.2-1.6,0-3.9l-3.5-5.5h-3.3c-.2,0-.3,0-.4.1h0ZM199.6,210.6c.2,3.5-1.3,5.2-4.7,5h-10.1c-1.4,0-2.1-.9-2.1-2.7v-7.1h0v-6.8c0-.4,0-.8.2-1.4.1-.6.5-.9,1.1-1.1.6-.1,1.1-.2,1.5-.2h6.3c.9,0,2,.6,3.2,2.1l3.4,5c.9,1.5,1.4,2.8,1.3,3.9v3.3q0,0,0,0Z"/>
  </g>
  <path d="M57.7,25v22.6h100.6v-22.6H57.7ZM145.5,29.1h6.7l.4.4-1.3,1.3h-4.9l-1.3-1.3.4-.4ZM144.4,30.2l.4-.4,1.3,1.3v4.1l-.9.9h0,0c0,0-.8,0-.8,0v-5.9ZM139.8,31.1l1.3-1.3h0l.4.4v5.9h-.9c0,0-.9-.9-.9-.9v-4.1ZM63.8,29.1h6.7l.4.4-1.3,1.3h-4.9l-1.3-1.3.4-.4ZM62.7,30.2l.4-.4,1.3,1.3v4.1l-.9.9h0,0c0,0-.8,0-.8,0v-5.9ZM64.5,41.4h0c0,0-1.3,1.4-1.3,1.4l-.4-.4v-5.9h.9c0,0,.9.9.9.9v4ZM66.5,37.2h-1.8l-.9-.9.9-.9h1.8l.5.9-.5.9ZM69.5,41.4h-.4l-.8-1.3v-2.6h.5l.7,1.1v2.8ZM69.6,37.2h-1.8l-.5-.9.5-.9h1.7,0s.9.9.9.9l-.9.9ZM71.6,36.2h-.9c0,0-.9-.9-.9-.9v-4.1l1.3-1.3h0l.4.4v5.9ZM74.4,30.2l.4-.4,1.3,1.3v4.1l-.9.9h0,0c0,0-.8,0-.8,0v-5.9ZM74.4,42.4v-5.9h.9c0,0,.9.9.9.9v4h0c0,0-1.3,1.4-1.3,1.4l-.4-.4ZM82.2,43.5h-6.7l-.4-.4,1.3-1.3h4.9l1.3,1.3-.4.4ZM83.3,42.4l-.4.4-1.3-1.3v-4.1l.9-.9h0,0c0,0,.8,0,.8,0v5.9ZM83.3,36.2h-.9c0,0-.9-.9-.9-.9v-4.1l1.3-1.3h0l.4.4v5.9ZM86.1,30.2l.4-.4,1.3,1.3v4.1l-.9.9h0,0c0,0-.8,0-.8,0v-5.9ZM87.9,41.4h0c0,0-1.3,1.4-1.3,1.4l-.4-.4v-5.9h.9c0,0,.9.9.9.9v4ZM89.4,35.1h-.5l-.7-1.2v-2.8h.4l.8,1.3v2.6ZM92.9,41.4h-.4l-.8-1.3v-2.6h.5l.7,1.1v2.8ZM95,42.4l-.4.4-1.3-1.3v-4.1l.9-.9h0,0c0,0,.8,0,.8,0v5.9ZM95,36.2h-.9c0,0-.9-.9-.9-.9v-4.1l1.3-1.3h0l.4.4v5.9ZM105.9,29.1h6.7l.4.4-1.3,1.3h-4.9l-1.3-1.3.4-.4ZM109.2,36l-.9-1.5v-3.3h1.8v3.3l-.9,1.5ZM110.1,38.1v3.3h-1.8v-3.3l.9-1.5.9,1.5ZM112.5,43.5h-6.7l-.4-.4,1.3-1.3h4.9l1.3,1.3-.4.4ZM121.8,39.6v1.8h-1.8v-3.3l.9-1.5.9,1.5v1.5ZM121.8,34.5l-.9,1.5-.9-1.5v-3.3h1.8v3.3ZM123.3,30.9h-4.9l-1.3-1.3.4-.4h6.7l.4.4-1.3,1.3ZM132.7,30.2l.4-.4,1.3,1.3v4.1l-.9.9h0,0c0,0-.8,0-.8,0v-5.9ZM132.7,42.4v-5.9h.9c0,0,.9.9.9.9v4h0c0,0-1.3,1.4-1.3,1.4l-.4-.4ZM140.5,43.5h-6.7l-.4-.4,1.3-1.3h4.9l1.3,1.3-.4.4ZM141.6,42.4l-.4.4-1.3-1.3v-4.1l.9-.9h0,0c0,0,.8,0,.8,0v5.9ZM146.2,41.4h0c0,0-1.3,1.4-1.3,1.4l-.4-.4v-5.9h.9c0,0,.9.9.9.9v4ZM148.2,37.2h-1.8l-.9-.9.9-.9h1.8l.5.9-.5.9ZM151.3,37.2h-1.8l-.5-.9.5-.9h1.7,0s.9.9.9.9l-.9.9ZM153.3,36.2h-.9c0,0-.9-.9-.9-.9v-4.1l1.3-1.3h0l.4.4v5.9Z"/>
  <path d="M26.3,54.8v47.5h31v-47.5h-31ZM52.1,63.5v14.6h-2.1c0-.1-2.1-2.3-2.1-2.3v-10.1l3.1-3.3,1,1.1ZM34,60.8h15.6l1,1.1-3.1,3.3h-11.4l-3.1-3.3,1-1.1ZM31.5,63.5l1-1.1,3.1,3.3v10.1l-2.1,2.2h0s-.1.2-.1.2h-1.9v-14.6ZM32.5,94.6l-1-1.1v-14.6h1.9v.2c.1,0,2.2,2.1,2.2,2.1v10.1l-3.1,3.3h0ZM49.6,96.2h-15.6l-1-1.1,3.1-3.3h11.4l3.1,3.3-1,1.1ZM52.1,93.5l-1,1.1-3.1-3.3v-10.1l2.1-2.2h0s.1-.2.1-.2h1.9v14.6Z"/>
  <path d="M65.3,54.8v47.5h31v-47.5h-31ZM73,60.8h15.6l1,1.1-3.1,3.3h-11.4l-3.1-3.3,1-1.1ZM70.5,63.5l1-1.1,3.1,3.3v10.1l-2.1,2.2h0s-.1.2-.1.2h-1.9v-14.6ZM71.5,94.6l-1-1.1v-14.6h1.9v.2c.1,0,2.2,2.1,2.2,2.1v10.1l-3.1,3.3h0ZM88.6,96.2h-15.6l-1-1.1,3.1-3.3h11.4l3.1,3.3-1,1.1ZM91.2,93.5l-1,1.1-3.1-3.3v-10.1l2.1-2.2h0s.1-.2.1-.2h1.9v14.6ZM91.2,78.1h-2.1c0-.1-2.1-2.3-2.1-2.3v-10.1l3.1-3.3,1,1.1v14.6Z"/>
  <path d="M119.5,54.8v47.5h31v-47.5h-31ZM144.3,62.4l1,1.1v14.6h-2.1c0-.1-2.1-2.3-2.1-2.3v-10.1l3.1-3.3h0ZM127.3,60.8h15.6l1,1.1-3.1,3.3h-11.4l-3.1-3.3,1-1.1ZM124.7,63.5l1-1.1,3.1,3.3v10.1l-2.1,2.2h0s-.1.2-.1.2h-1.9v-14.6ZM125.8,94.6l-1-1.1v-14.6h1.9v.2c.1,0,2.2,2.1,2.2,2.1v10.1l-3.1,3.3h0ZM142.8,96.2h-15.6l-1-1.1,3.1-3.3h11.4l3.1,3.3-1,1.1ZM145.4,93.5l-1,1.1-3.1-3.3v-10.1l2.1-2.2h0s.1-.2.1-.2h1.9v14.6Z"/>
  <path d="M158.6,54.8v47.5h31v-47.5h-31ZM166.3,60.8h15.6l1,1.1-3.1,3.3h-11.4l-3.1-3.3,1-1.1ZM163.8,63.5l1-1.1,3.1,3.3v10.1l-2.1,2.2h0s-.1.2-.1.2h-1.9v-14.6ZM164.8,94.6l-1-1.1v-14.6h1.9v.2c.1,0,2.2,2.1,2.2,2.1v10.1l-3.1,3.3h0ZM181.9,96.2h-15.6l-1-1.1,3.1-3.3h11.4l3.1,3.3-1,1.1ZM184.4,93.5l-1,1.1-3.1-3.3v-10.1l2.1-2.2h0s.1-.2.1-.2h1.9v14.6ZM184.4,78.1h-2.1c0-.1-2.1-2.3-2.1-2.3v-10.1l3.1-3.3h0l1,1.1v14.6Z"/>
</svg>