<?xml version="1.0" encoding="UTF-8"?>
<svg id="Layer_1" xmlns="http://www.w3.org/2000/svg" xmlns:xlink="http://www.w3.org/1999/xlink" version="1.1" viewBox="0 0 432 126">
  <!-- Generator: Adobe Illustrator 29.3.1, SVG Export Plug-In . SVG Version: 2.1.0 Build 151)  -->
  <defs>
    <style>
      .st0 {
        fill: none;
      }

      .st1 {
        clip-path: url(#clippath-1);
      }

      .st2 {
        clip-path: url(#clippath-2);
      }

      .st3 {
        clip-path: url(#clippath);
      }
    </style>
    <clipPath id="clippath">
      <rect class="st0" x="1.9" y="15.1" width="184.2" height="104"/>
    </clipPath>
    <clipPath id="clippath-1">
      <rect class="st0" x="23.4" y="6.4" width="9.4" height="21.5"/>
    </clipPath>
    <clipPath id="clippath-2">
      <rect class="st0" x="154.8" y="6.4" width="9.4" height="21.5"/>
    </clipPath>
  </defs>
  <g class="st3">
    <path d="M178.8,23.3v88.3H9.3V23.3h169.4ZM186.1,15.9H1.9v103.1h184.2V15.9h0Z"/>
  </g>
  <path d="M88.7,69h11.6v11.6h-11.6s0-11.6,0-11.6Z"/>
  <path d="M88.7,86.1h11.6v11.6h-11.6s0-11.6,0-11.6Z"/>
  <g class="st1">
    <path d="M23.5,6.4h9.1v20.9h-9.1V6.4Z"/>
  </g>
  <g class="st2">
    <path d="M154.9,6.4h9.1v20.9h-9.1V6.4Z"/>
  </g>
  <g>
    <g>
      <path d="M233.5,67.7v9.2c0,3.2-1,5.6-2.9,7.2-1.9,1.6-4.1,2.4-6.7,2.4s-4.9-.8-6.8-2.4c-1.9-1.6-2.8-4-2.8-7.2V25.3c0-3.1.9-5.4,2.8-7.1,1.9-1.7,4.2-2.5,6.8-2.5s4.8.8,6.7,2.5c1.9,1.6,2.9,4,2.9,7.1v16.5l15.8-22.4c.9-1.4,1.9-2.4,2.9-2.9,1-.5,2.5-.8,4.5-.8,3.2,0,5.7.9,7.5,2.8,1.7,1.8,2.6,4.1,2.6,6.9s-.2,2.3-.5,3.3c-.3,1-.9,2-1.7,2.8l-10.7,12.1h9.6c6.3,0,9.5,3.2,9.6,9.7v23.9c0,3.1-.9,5.4-2.8,7.1s-4.1,2.5-6.7,2.5-4.9-.8-6.8-2.5c-1.9-1.7-2.9-4-2.9-7.1v-16.1c-.5-.2-1.2-.4-2.3-.5h-12.1l-6,7.1h0Z"/>
      <path d="M298.8,76.8c0,3.2-1,5.6-2.9,7.2-1.9,1.6-4.1,2.4-6.7,2.4s-5-.8-6.8-2.4c-1.9-1.6-2.9-4-2.9-7.2V25.3c0-3.1,1-5.4,2.9-7.1,1.9-1.7,4.2-2.5,6.8-2.5s4.8.8,6.7,2.5c1.9,1.6,2.9,4,2.9,7.1v51.5h0Z"/>
      <path d="M324.2,34.3v34.9c.5.2,1.3.4,2.4.6h3.9s16.2,0,16.2,0c1.5,0,2.6-.5,3.3-1.6.7-1,.8-5.8.2-14.3l-12.7-20.1h-11.9c-.6,0-1.1.3-1.4.5h0ZM368.6,68c.9,12.8-4.9,18.9-17.3,18.1h-36.7c-5.2,0-7.7-3.3-7.7-9.9v-25.7h0v-24.7c0-1.3.2-2.9.6-5,.4-2.1,1.8-3.4,4.1-3.9,2.3-.5,4.1-.8,5.3-.8h22.9c3.2-.2,7.1,2.3,11.7,7.5l12.4,18.3c3.4,5.4,5,10.1,4.8,14.1v12.1c-.1,0-.1,0-.1,0Z"/>
      <path d="M430.4,77.9c0,5.5-3.2,8.2-9.7,8.2h-36.2c-1.6,0-3-.3-4.2-.8-1.2-.6-2.2-1.3-3-2.2-.8-.9-1.4-1.9-1.8-3.1-.4-1.2-.6-2.4-.6-3.6s.2-2.4.6-3.5c.4-1.2,1-2.2,1.9-3.1.8-.9,1.9-1.6,3.1-2.2,1.2-.6,2.6-.8,4.2-.8h25c2.6,0,3.9-.4,3.9-1.1,0-.8,0-1.6,0-2.5s0-1.8,0-2.6c0-.8-1.3-1.2-3.9-1.2h-25.5c-3.3,0-5.8-.6-7.6-1.8-1.8-1.2-2.8-3.8-2.9-7.7-.2-4.6.5-10,2.4-16.2,1.9-6.3,5.4-10.8,10.8-13.5,5.3-2.7,11.1-4,17.4-4h14.3c1.6,0,3.1.3,4.4.9,1.3.6,2.3,1.3,3.2,2.2.9.9,1.5,1.9,2,3.1.4,1.1.7,2.3.7,3.5s-.1,2.2-.4,3.1c-.3.9-.8,1.8-1.7,2.7-.9.9-1.9,1.7-3.2,2.3-1.3.6-2.8.8-4.4.8h-21.6c-2,0-3.4.6-4.3,1.7-.9,1.2-1.5,2.3-1.7,3.4s0,1.9.6,2.4c.6.5,1.6.7,3,.7h24.5c7,0,10.6,1.7,10.8,5.2.1,3.4.2,13.4.1,29.9h0Z"/>
    </g>
    <g>
      <path d="M222.5,112.8h8.2c.9,0,1.6.3,2.1.9.5.6.8,1.3.8,2.1s-.2,1.6-.8,2.2c-.5.6-1.2.9-2.1.9h-12.5c-2,0-3-1-3-3.1v-7.8s0-1.3,0-1.3c0-.9.3-1.8.6-2.7.5-1.3,1.2-2.5,2.1-3.6,1-1.1,2.2-1.9,3.6-2.6,1.4-.7,3.1-1,5-1h3.3c.5,0,.9,0,1.3.3.4.2.7.4,1,.7.3.3.5.6.6,1,.1.4.2.8.2,1.2s0,.8-.2,1.2c-.1.4-.3.7-.6,1-.3.3-.6.5-1,.7-.4.2-.8.3-1.3.3h-3.8c-.9,0-1.6.1-2.2.4-.6.3-1.2.7-1.6,1.3-.4.6-.7,1.5-.8,2.7-.1,1.2-.1,2.8,0,4.7,0,.5.4.7,1,.8h0Z"/>
      <path d="M248.2,110.7s0,0,0,0h-6.9v5.2c0,1-.3,1.8-.9,2.3-.6.5-1.3.8-2.1.8s-1.5-.2-2.1-.8c-.6-.5-.9-1.3-.9-2.3v-16.2c0-1,.3-1.7.9-2.2.6-.5,1.3-.8,2.1-.8s1.5.3,2.1.8c.6.5.9,1.3.9,2.2v5.1c0,0,.3.1.5.2h6.2c0,0,.2,0,.3,0v-5.2c0-1,.3-1.7.9-2.2.6-.5,1.3-.8,2.1-.8s1.5.3,2.2.8c.6.5.9,1.3.9,2.2v16.2c0,1-.3,1.8-.9,2.3-.6.5-1.3.8-2.2.8s-1.5-.2-2.1-.8c-.6-.5-.9-1.3-.9-2.3v-5.2h0Z"/>
      <path d="M255.9,107.8c0-1.6.3-3,.9-4.4.6-1.4,1.4-2.5,2.4-3.6,1-1,2.2-1.8,3.6-2.4,1.4-.6,2.8-.9,4.4-.9s3,.3,4.4.9c1.4.6,2.6,1.4,3.6,2.4,1,1,1.8,2.2,2.4,3.6.6,1.4.9,2.8.9,4.4s-.3,3-.9,4.4c-.6,1.3-1.4,2.5-2.4,3.6-1,1-2.2,1.8-3.6,2.4-1.4.6-2.8.9-4.4.9s-3-.3-4.4-.9c-1.4-.6-2.6-1.4-3.6-2.4-1-1-1.8-2.2-2.4-3.6-.6-1.4-.9-2.8-.9-4.4ZM262,107.9c0,.7.1,1.4.4,2,.3.6.6,1.2,1.1,1.6s1,.8,1.6,1.1c.6.2,1.3.4,2,.4s1.4-.1,2-.4c.6-.3,1.2-.6,1.6-1.1.5-.5.9-1,1.1-1.6.3-.6.4-1.3.4-2s-.1-1.4-.4-2c-.3-.6-.6-1.2-1.1-1.6-.5-.5-1-.8-1.6-1.1-.6-.3-1.3-.4-2-.4s-1.4.1-2,.4c-.6.3-1.1.6-1.6,1.1s-.8,1-1.1,1.6c-.3.6-.4,1.3-.4,2Z"/>
      <path d="M295,110.3l3.3,4.2c.6.8.8,1.5.6,2.2-.2.7-.7,1.3-1.3,1.7-.6.4-1.3.6-2.1.4-.7,0-1.4-.5-2-1.3l-5.8-7.4c-.5-.8-.6-1.5-.4-2.2.1-.5.4-1,.7-1.3,0,0,0,0,0,0,.4-.4,1-.7,1.7-.7h2.6c.8,0,1.4,0,1.8,0l-2.9-3.2h-4.5c-.1,0-.2,0-.3.1v13h0c0,2-1,3.1-3,3.1s-2.8-1-2.8-3.1v-15.9c0-2.1.9-3.1,2.6-3.1h8.8c.8,0,1.8.6,3.1,1.8l2.7,3.3c.9,1.2,1.4,2.3,1.4,3.2,0,.3,0,.5,0,.8v1.6c0,1-.3,1.7-.9,2.2-.6.5-1.3.7-2.1.7h-1.1Z"/>
      <path d="M308.4,112.7h7.6c1,0,1.7.3,2.2.9.5.6.8,1.3.8,2.1s-.3,1.6-.8,2.2c-.5.6-1.3.9-2.2.9h-11.9c-1.3,0-2.2-.4-2.7-1.3-.3-.5-.4-1-.4-1.7v-15.9c0-2.1,1-3.1,3-3.1h11.9c1,0,1.7.3,2.2.9.5.6.8,1.3.8,2.2s-.3,1.6-.8,2.2c-.5.6-1.3.9-2.2.9h-7.5c-.6,0-1.1.3-1.2,1v.4c.1.5.5.7,1,.8h6.3c1,0,1.7.3,2.2.9.5.6.8,1.3.8,2s-.2,1.5-.8,2c-.5.6-1.2.9-2.2.9h-6.6c-.5,0-.8.3-.9.9v.4c.1.5.6.7,1.3.6h0Z"/>
      <path d="M327,105.8h5.6c.4,0,.8-.3,1.3-.8l-2.4-2.3h-4.8v3.1c0,0,.2,0,.4,0h0ZM326.7,110.8v2.9h6.5c.5,0,.8-.2,1-.5.2-.3.4-.7.4-1s-.1-.7-.4-1c-.2-.3-.6-.5-1-.5h-6.3c-.1,0-.2,0-.2,0h0ZM320.8,99.9c0-2.1.9-3.1,2.6-3.1h8.7c.8,0,1.8.6,3.1,1.8l2.8,2.6c.9,1.2,1.4,2.3,1.4,3.2s-.2,1.6-.5,2.2c-.3.5-.7.9-1.2,1.1.1,0,.4.2.8.6.4.3.6.7.9,1.2.3.5.4,1.1.4,1.7,0,.7,0,1.3,0,2,.3,4-1.5,5.9-5.5,5.7h-11c-1.6,0-2.4-1-2.4-3.1v-15.9h0Z"/>
      <path d="M341.2,107.8c0-1.6.3-3,.9-4.4.6-1.4,1.4-2.5,2.4-3.6,1-1,2.2-1.8,3.6-2.4,1.4-.6,2.8-.9,4.4-.9s3,.3,4.4.9c1.4.6,2.6,1.4,3.6,2.4,1,1,1.8,2.2,2.4,3.6.6,1.4.9,2.8.9,4.4s-.3,3-.9,4.4c-.6,1.3-1.4,2.5-2.4,3.6-1,1-2.2,1.8-3.6,2.4-1.4.6-2.8.9-4.4.9s-3-.3-4.4-.9c-1.4-.6-2.6-1.4-3.6-2.4-1-1-1.8-2.2-2.4-3.6-.6-1.4-.9-2.8-.9-4.4ZM347.4,107.9c0,.7.1,1.4.4,2,.3.6.6,1.2,1.1,1.6s1,.8,1.6,1.1c.6.2,1.3.4,2,.4s1.4-.1,2-.4c.6-.3,1.2-.6,1.6-1.1.5-.5.9-1,1.1-1.6.3-.6.4-1.3.4-2s-.1-1.4-.4-2c-.3-.6-.6-1.2-1.1-1.6-.5-.5-1-.8-1.6-1.1-.6-.3-1.3-.4-2-.4s-1.4.1-2,.4c-.6.3-1.1.6-1.6,1.1s-.8,1-1.1,1.6c-.3.6-.4,1.3-.4,2Z"/>
      <path d="M378.5,105.3v-2.9h-3.8c-1.9,0-2.9.9-2.9,2.7v.2c.1.1.4.2.8.2h5.2c.4,0,.6-.1.7-.2h0ZM378.5,111.3c-.1,0-.4-.2-.9-.2h0s-5.1,0-5.1,0c-.3,0-.5,0-.6.1v4.3c0,.5,0,.9-.3,1.3-.2.4-.4.7-.7.9-.3.2-.6.4-1,.6-.4.1-.7.2-1.1.2-.9,0-1.6-.3-2.2-.8-.6-.5-.9-1.3-.9-2.2v-9.2c0-6.3,2.8-9.6,8.5-9.7h7.2c2,0,3,1,3,3.1v16.1c0,1-.3,1.7-.9,2.2-.6.5-1.3.8-2.1.8s-1.5-.3-2.1-.8c-.6-.5-.9-1.2-.9-2.2v-4.5h0Z"/>
      <path d="M401.2,110.3l3.3,4.2c.6.8.8,1.5.6,2.2-.2.7-.7,1.3-1.3,1.7-.6.4-1.3.6-2.1.4-.7,0-1.4-.5-2-1.3l-5.8-7.4c-.5-.8-.6-1.5-.4-2.2.1-.5.4-1,.7-1.3,0,0,0,0,0,0,.4-.4,1-.7,1.7-.7h2.6c.8,0,1.4,0,1.8,0l-2.9-3.2h-4.5c-.1,0-.2,0-.3.1v13h0c0,2-1,3.1-3,3.1s-2.8-1-2.8-3.1v-15.9c0-2.1.9-3.1,2.6-3.1h8.8c.8,0,1.8.6,3.1,1.8l2.7,3.3c.9,1.2,1.4,2.3,1.4,3.2,0,.3,0,.5,0,.8v1.6c0,1-.3,1.7-.9,2.2-.6.5-1.3.7-2.1.7h-1.1Z"/>
      <path d="M412.7,102.5v11c.2,0,.4.2.8.2h1.2s5.1,0,5.1,0c.5,0,.8-.2,1-.5.2-.3.2-1.8,0-4.5l-4-6.3h-3.7c-.2,0-.4,0-.5.1h0ZM426.7,113.1c.3,4-1.5,5.9-5.4,5.7h-11.6c-1.6,0-2.4-1-2.4-3.1v-8.1h0v-7.8c0-.4,0-.9.2-1.6.1-.7.6-1.1,1.3-1.2.7-.2,1.3-.3,1.7-.3h7.2c1,0,2.2.7,3.7,2.4l3.9,5.8c1.1,1.7,1.6,3.2,1.5,4.4v3.8c0,0,0,0,0,0Z"/>
    </g>
  </g>
  <path d="M45.5,30v22h98v-22H45.5ZM130.5,34.5l.4-.4h6.5l.4.4-1.3,1.3h-4.8l-1.3-1.3h0ZM129.9,35.1l.4-.4,1.3,1.3v4l-.9.8h0c0,0-.8,0-.8,0v-5.8ZM125.4,36l1.3-1.3h0s.4.4.4.4v5.8h-.9c0,0-.9-.9-.9-.9v-4ZM118.5,35.1l.4-.4,1.3,1.3v4l-.9.8h0c0,0-.8,0-.8,0v-5.8ZM51,34.5l.4-.4h6.5l.4.4-1.3,1.3h-4.8l-1.3-1.3h0ZM50.3,35.1l.4-.4,1.3,1.3v4l-.9.8h0c0,0-.8,0-.8,0v-5.8ZM52.1,46h0c0,0-1.3,1.4-1.3,1.4l-.4-.4v-5.8h.9c0,0,.9.9.9.9v3.9ZM54,41.9h-1.7l-.9-.9.9-.9h1.7l.5.9-.5.9ZM57,46h-.4l-.7-1.3v-2.6h.5l.6,1.1v2.7ZM57,41.9h-1.7l-.5-.9.5-.9h1.7s.9.9.9.9l-.9.9ZM59,40.9h-.9c0,0-.9-.9-.9-.9v-4l1.3-1.3h0s.4.4.4.4v5.8ZM61.7,35.1l.4-.4,1.3,1.3v4l-.9.8h0c0,0-.8,0-.8,0v-5.8ZM61.7,47v-5.8h.9c0,0,.9.9.9.9v3.9h0c0,0-1.3,1.4-1.3,1.4l-.4-.4ZM69.7,47.6l-.4.4h-6.5l-.4-.4,1.3-1.3h4.8l1.3,1.3h0ZM70.4,47l-.4.4-1.3-1.3v-4l.9-.9h0s.8,0,.8,0v5.8ZM70.4,40.9h-.9c0,0-.9-.9-.9-.9v-4l1.3-1.3h0s.4.4.4.4v5.8ZM73.1,35.1l.4-.4,1.3,1.3v4l-.9.8h0c0,0-.8,0-.8,0v-5.8ZM74.9,46h0c0,0-1.3,1.4-1.3,1.4l-.4-.4v-5.8h.9c0,0,.9.9.9.9v3.9ZM76.3,39.9h-.5l-.6-1.1v-2.7h.4l.7,1.3v2.6ZM79.8,46h-.4l-.7-1.3v-2.6h.5l.6,1.1v2.7ZM81.8,47l-.4.4-1.3-1.3v-4l.9-.9h0s0,0,0,0h.8v5.8ZM81.8,40.9h-.9c0,0-.9-.9-.9-.9v-4l1.3-1.3h0s.4.4.4.4v5.8ZM91.9,34.5l.4-.4h6.5l.4.4-1.3,1.3h-4.8l-1.3-1.3h0ZM94.7,42.8l.9-1.5.9,1.5v1.4h0v1.8h-1.7v-3.2ZM94.7,39.2v-1.4h0s0-1.7,0-1.7h1.7v3.2l-.9,1.5-.9-1.5ZM99.3,47.6l-.4.4h-6.5l-.4-.4,1.3-1.3h4.8l1.3,1.3h0ZM107.9,44.3h0v1.8h-1.7v-3.2l.9-1.5.9,1.5v1.4ZM106.1,39.2v-1.4h0s0-1.7,0-1.7h1.7v3.2l-.9,1.5-.9-1.5ZM109.4,35.8h-4.8l-1.3-1.3h0l.4-.4h6.5l.4.4-1.3,1.3ZM118.5,47v-5.8h.9c0,0,.9.9.9.9v3.9h0c0,0-1.3,1.4-1.3,1.4l-.4-.4ZM126.5,47.6l-.4.4h-6.5l-.4-.4,1.3-1.3h4.8l1.3,1.3h0ZM127.2,47l-.4.4-1.3-1.3v-4l.9-.9h0s0,0,0,0h.8v5.8ZM131.7,46h0c0,0-1.3,1.4-1.3,1.4l-.4-.4v-5.8h.9c0,0,.9.9.9.9v3.9ZM133.6,41.9h-1.7l-.9-.9.9-.9h1.7l.5.9-.5.9ZM136.6,41.9h-1.7l-.5-.9.5-.9h1.7s.9.9.9.9l-.9.9ZM138.5,40.9h-.9c0,0-.9-.9-.9-.9v-4l1.3-1.3h0s.4.4.4.4v5.8Z"/>
  <path d="M14.8,59v46.2h30.2v-46.2H14.8ZM22.3,64.9h15.2l1,1.1-3,3.2h-11.1l-3-3.2,1-1.1ZM19.9,67.5l1-1.1,3,3.2v9.8l-2,2.1h0s-.1.2-.1.2h-1.9v-14.3ZM20.9,97.8l-1-1.1v-14.3h1.9v.2c.1,0,2.2,2.1,2.2,2.1v9.8l-3,3.2h0ZM37.5,99.4h-15.2l-1-1.1,3-3.2h11.1l3,3.2-1,1.1ZM40,96.8l-1,1.1-3-3.2v-9.8l2-2.1h.1c0-.1,1.9-.1,1.9-.1v14.2ZM40,81.8h-2c0-.1-2-2.2-2-2.2v-9.9l3-3.2h0s1,1.1,1,1.1v14.3Z"/>
  <path d="M52.8,59v46.2h30.2v-46.2h-30.2ZM60.4,64.9h15.2l1,1.1-3,3.2h-11.1l-3-3.2,1-1.1ZM57.9,67.5l1-1.1,3,3.2v9.8l-2,2.1h0s-.1.2-.1.2h-1.9v-14.3ZM58.9,97.8l-1-1.1v-14.3h1.9v.2c.1,0,2.2,2.1,2.2,2.1v9.8l-3,3.2h0ZM75.6,99.4h-15.2l-1-1.1,3-3.2h11.1l3,3.2-1,1.1ZM78,96.8l-1,1.1-3-3.2v-9.8l2-2.1h.1c0-.1,1.9-.1,1.9-.1v14.2ZM78,81.8h-2c0-.1-2-2.2-2-2.2v-9.9l3-3.2h0s1,1.1,1,1.1v14.3Z"/>
  <path d="M105.7,59v46.2h30.2v-46.2h-30.2ZM113.2,64.9h15.2l1,1.1-3,3.2h-11.1l-3-3.2,1-1.1ZM110.7,67.5l1-1.1,3,3.2v9.8l-2,2.1h0s-.1.2-.1.2h-1.9v-14.3ZM111.8,97.8l-1-1.1v-14.3h1.9v.2c.1,0,2.1,2.1,2.1,2.1v9.8l-3,3.2h0ZM128.4,99.4h-15.2l-1-1.1,3-3.2h11.1l3,3.2-1,1.1ZM130.9,96.8l-1,1.1-3-3.2v-9.8l2-2.1h.1c0-.1,1.9-.1,1.9-.1v14.2ZM130.9,81.8h-2c0-.1-2-2.2-2-2.2v-9.9l3-3.2h0s1,1.1,1,1.1v14.3Z"/>
  <path d="M143.7,59v46.2h30.2v-46.2h-30.2ZM167.9,66.5l1,1.1v14.3h-2c0-.1-2-2.2-2-2.2v-9.9l3-3.2h0ZM151.3,64.9h15.2l1,1.1-3,3.2h-11.1l-3-3.2,1-1.1ZM148.8,67.5l1-1.1,3,3.2v9.8l-2,2.1h0s-.1.2-.1.2h-1.9v-14.3ZM149.8,97.8l-1-1.1v-14.3h1.9v.2c.1,0,2.2,2.1,2.2,2.1v9.8l-3,3.2h0ZM166.4,99.4h-15.2l-1-1.1,3-3.2h11.1l3,3.2-1,1.1ZM168.9,96.8l-1,1.1-3-3.2v-9.8l2-2.1h.1c0-.1,1.9-.1,1.9-.1v14.2Z"/>
</svg>