<?xml version="1.0" encoding="UTF-8"?>
<svg id="Layer_1" data-name="Layer 1" xmlns="http://www.w3.org/2000/svg" xmlns:xlink="http://www.w3.org/1999/xlink" viewBox="0 0 216 216">
  <defs>
    <style>
      .cls-1 {
        fill: none;
      }

      .cls-2, .cls-3 {
        fill: #fff;
      }

      .cls-2, .cls-4 {
        opacity: .35;
      }

      .cls-5 {
        fill: #6f42c1;
      }

      .cls-6 {
        clip-path: url(#clippath-1);
      }

      .cls-7 {
        clip-path: url(#clippath-2);
      }

      .cls-8 {
        clip-path: url(#clippath);
      }
    </style>
    <clipPath id="clippath">
      <rect class="cls-1" x="13.04" y="9.62" width="189.08" height="106.73"/>
    </clipPath>
    <clipPath id="clippath-1">
      <rect class="cls-5" x="35.1" y=".73" width="9.63" height="22.07"/>
    </clipPath>
    <clipPath id="clippath-2">
      <rect class="cls-5" x="169.99" y=".73" width="9.63" height="22.07"/>
    </clipPath>
  </defs>
  <g class="cls-8">
    <path class="cls-5" d="M194.53,18.07v90.67H20.63V18.07h173.91ZM202.12,10.5H13.04v105.82h189.08V10.5Z"/>
  </g>
  <path class="cls-5" d="M26.26,54.76h31.03v47.46h-31.03v-47.46Z"/>
  <path class="cls-5" d="M65.31,54.76h31.03v47.46h-31.03v-47.46Z"/>
  <path class="cls-5" d="M119.54,54.76h31.02v47.46h-31.02v-47.46Z"/>
  <path class="cls-5" d="M158.59,54.76h31.03v47.46h-31.03v-47.46Z"/>
  <path class="cls-5" d="M102.05,65.03h11.89v11.87h-11.89v-11.87Z"/>
  <path class="cls-5" d="M102.05,82.55h11.89v11.86h-11.89v-11.86Z"/>
  <g>
    <rect class="cls-5" x="35.1" y=".73" width="9.63" height="22.07"/>
    <g class="cls-6">
      <path class="cls-5" d="M35.24.78h9.31v21.46h-9.31V.78Z"/>
    </g>
  </g>
  <g>
    <rect class="cls-5" x="169.99" y=".73" width="9.63" height="22.07"/>
    <g class="cls-7">
      <path class="cls-5" d="M170.01.78h9.31v21.46h-9.31V.78Z"/>
    </g>
  </g>
  <g>
    <path class="cls-5" d="M31.02,170.91v8c0,2.78-.85,4.88-2.53,6.3-1.67,1.41-3.63,2.11-5.85,2.11s-4.32-.7-5.97-2.11c-1.64-1.42-2.46-3.52-2.46-6.3v-44.96c0-2.67.82-4.73,2.46-6.17,1.66-1.46,3.64-2.18,5.97-2.18s4.17.73,5.85,2.18c1.69,1.44,2.53,3.5,2.53,6.17v14.4l13.82-19.52c.82-1.22,1.66-2.06,2.51-2.53.87-.46,2.19-.7,3.96-.7,2.81,0,4.97.8,6.5,2.41,1.52,1.59,2.28,3.6,2.28,6.02,0,1-.14,1.97-.43,2.89-.29.9-.78,1.72-1.48,2.43l-9.36,10.54h8.38c5.53,0,8.32,2.83,8.36,8.48l.05,20.85c0,2.66-.83,4.72-2.48,6.17s-3.61,2.18-5.87,2.18-4.23-.72-5.92-2.16c-1.67-1.46-2.51-3.52-2.51-6.2l-.05-14.08c-.37-.21-1.03-.36-1.98-.43h-10.51l-5.27,6.2Z"/>
    <path class="cls-5" d="M88.02,178.92c0,2.78-.84,4.88-2.51,6.3-1.66,1.41-3.61,2.11-5.87,2.11s-4.32-.7-5.97-2.11c-1.66-1.42-2.48-3.52-2.48-6.3v-44.96c0-2.67.83-4.73,2.48-6.17,1.66-1.46,3.64-2.18,5.97-2.18s4.22.73,5.87,2.18c1.67,1.44,2.51,3.5,2.51,6.17v44.96Z"/>
    <path class="cls-5" d="M110.18,141.81l.08,30.46c.36.22,1.04.38,2.03.48h3.39v.03h14.13c1.29,0,2.25-.45,2.89-1.35.58-.9.65-5.07.2-12.5l-11.06-17.54h-10.39c-.55.09-.97.23-1.25.43ZM148.95,171.16c.78,11.19-4.24,16.46-15.08,15.81h-32.04c-4.5,0-6.75-2.87-6.75-8.61v-22.41h-.03v-21.58c0-1.1.18-2.57.55-4.39.36-1.82,1.56-2.96,3.59-3.41,2.04-.46,3.58-.7,4.62-.7h20.02c2.79-.18,6.2,1.99,10.21,6.52l10.84,15.93c2.96,4.74,4.35,8.83,4.17,12.27l-.1,10.56Z"/>
    <path class="cls-5" d="M202.79,179.82c0,4.77-2.81,7.15-8.43,7.15h-31.56c-1.39,0-2.61-.24-3.66-.73-1.04-.5-1.9-1.14-2.58-1.91-.69-.78-1.22-1.69-1.58-2.71-.35-1.02-.53-2.07-.53-3.16s.18-2.08.53-3.09c.36-1,.91-1.89,1.63-2.68.72-.78,1.61-1.42,2.68-1.91,1.07-.48,2.3-.73,3.69-.73h21.78c2.29,0,3.42-.33,3.41-.98-.02-.66-.03-1.39-.03-2.16,0-.82,0-1.57.03-2.26.01-.7-1.12-1.05-3.41-1.05h-22.26c-2.85,0-5.07-.53-6.67-1.58-1.59-1.05-2.42-3.29-2.48-6.72-.22-3.98.48-8.69,2.11-14.15,1.62-5.47,4.75-9.38,9.38-11.74,4.63-2.36,9.69-3.54,15.18-3.54h12.5c1.44,0,2.71.25,3.81.75,1.1.49,2.02,1.12,2.76,1.91.75.77,1.32,1.67,1.71,2.68.38,1,.58,2.03.58,3.09s-.13,1.93-.38,2.68c-.24.75-.73,1.54-1.48,2.36-.74.82-1.67,1.48-2.81,1.98-1.12.49-2.4.73-3.84.73h-18.82c-1.72,0-2.99.5-3.79,1.51-.79,1-1.28,1.98-1.48,2.94s-.02,1.65.55,2.08c.56.42,1.43.63,2.58.63h21.4c6.13,0,9.26,1.5,9.38,4.49.13,2.98.16,11.69.1,26.12Z"/>
  </g>
  <g>
    <path class="cls-5" d="M21.4,210.27h7.2c.82,0,1.44.26,1.86.78.43.52.65,1.14.65,1.86s-.22,1.35-.65,1.88c-.42.52-1.04.78-1.86.78h-10.94c-1.72,0-2.58-.88-2.58-2.66l-.03-6.82.08-1.18c.08-.8.26-1.59.55-2.38.4-1.17,1.02-2.21,1.86-3.11.85-.92,1.89-1.66,3.11-2.23,1.24-.56,2.7-.85,4.39-.85h2.86c.43,0,.82.09,1.15.25.33.15.61.35.85.6.23.25.41.54.53.85.11.32.18.65.18,1s-.06.7-.18,1.03c-.12.32-.29.6-.53.85-.24.25-.52.45-.85.6-.34.15-.72.23-1.15.23h-3.29c-.74,0-1.38.12-1.93.35-.55.24-1.02.6-1.41,1.1-.39.5-.63,1.29-.73,2.36-.09,1.05-.1,2.41-.05,4.06.06.42.36.64.9.65Z"/>
    <path class="cls-5" d="M43.82,208.48s-.04,0-.08-.03h-6v4.57c0,.87-.27,1.53-.8,1.98-.52.44-1.14.65-1.86.65s-1.34-.21-1.86-.65c-.52-.45-.78-1.11-.78-1.98v-14.15c0-.85.26-1.51.78-1.96.51-.45,1.14-.68,1.86-.68s1.34.23,1.86.68c.53.45.8,1.1.8,1.96v4.44c.08.07.23.12.43.15h5.42c.08-.01.16-.04.23-.08v-4.52c0-.85.26-1.51.78-1.96.51-.45,1.13-.68,1.83-.68s1.34.23,1.88.68c.53.45.8,1.1.8,1.96v14.15c0,.87-.27,1.53-.8,1.98-.54.44-1.17.65-1.88.65s-1.32-.21-1.83-.65c-.52-.45-.78-1.11-.78-1.98v-4.54Z"/>
    <path class="cls-5" d="M50.52,205.95c0-1.37.25-2.65.75-3.84.51-1.19,1.22-2.22,2.11-3.11.9-.88,1.94-1.58,3.14-2.08,1.19-.51,2.46-.78,3.81-.78s2.65.26,3.84.78c1.2.5,2.24,1.2,3.11,2.08.88.89,1.59,1.93,2.11,3.11.53,1.19.8,2.47.8,3.84s-.27,2.65-.8,3.84c-.52,1.17-1.22,2.21-2.11,3.11-.87.89-1.91,1.58-3.11,2.08-1.19.5-2.47.75-3.84.75s-2.63-.25-3.81-.75c-1.19-.5-2.23-1.19-3.14-2.08-.89-.9-1.59-1.94-2.11-3.11-.5-1.19-.75-2.47-.75-3.84ZM55.92,206.03c0,.62.11,1.2.35,1.73.23.54.55,1,.95,1.41s.87.72,1.41.95c.55.22,1.13.33,1.73.33s1.19-.11,1.73-.33c.55-.23,1.03-.55,1.43-.95.41-.4.74-.87.98-1.41.23-.53.35-1.11.35-1.73s-.12-1.19-.35-1.73c-.24-.55-.56-1.03-.98-1.43-.4-.4-.88-.72-1.43-.95-.54-.25-1.12-.38-1.73-.38s-1.18.13-1.73.38c-.54.24-1,.55-1.41.95s-.72.88-.95,1.43c-.24.54-.35,1.12-.35,1.73Z"/>
    <path class="cls-5" d="M84.64,208.13l2.86,3.64c.53.69.7,1.34.5,1.96-.2.62-.59,1.12-1.15,1.48-.57.35-1.17.48-1.81.38-.64-.08-1.22-.46-1.76-1.15l-5.07-6.45c-.42-.66-.53-1.31-.33-1.93.11-.46.31-.86.6-1.18.01-.03.03-.06.05-.08.38-.36.87-.58,1.46-.63h2.31c.7.04,1.24.04,1.61.03l-2.56-2.79h-3.96c-.12.04-.2.08-.25.13v11.37h-.03c0,1.78-.89,2.66-2.66,2.66-1.61,0-2.41-.9-2.41-2.71v-13.85c0-1.79.76-2.68,2.28-2.68h7.7c.68,0,1.59.51,2.71,1.53l2.33,2.89c.82,1.09,1.21,2.03,1.18,2.81.01.25.01.47,0,.65v1.38c0,.85-.27,1.5-.8,1.93-.52.42-1.13.63-1.83.63h-.98Z"/>
    <path class="cls-5" d="M96.38,210.24h6.62c.83,0,1.48.26,1.93.78.46.52.7,1.14.7,1.86s-.24,1.37-.7,1.91c-.45.52-1.1.78-1.93.78h-10.36c-1.15,0-1.93-.39-2.33-1.18-.24-.4-.35-.9-.35-1.51v-13.87c0-1.79.88-2.68,2.63-2.68h10.34c.83,0,1.49.27,1.96.8.46.54.7,1.17.7,1.88s-.24,1.37-.7,1.91c-.47.52-1.12.78-1.96.78h-6.52c-.57.02-.92.3-1.05.85v.33c.1.42.4.65.9.68h5.49c.83,0,1.47.25,1.91.75.43.5.65,1.1.65,1.78s-.22,1.28-.65,1.78c-.44.5-1.07.75-1.91.75h-5.75c-.45.04-.72.29-.78.78v.33c.13.42.51.6,1.15.53Z"/>
    <path class="cls-5" d="M112.61,204.17h4.87c.35,0,.73-.24,1.13-.73l-2.08-2.03h-4.22v2.68c.08.04.18.06.3.08ZM112.31,208.53v2.56h5.65c.41,0,.72-.14.9-.43.2-.28.3-.58.3-.9s-.1-.61-.3-.88c-.19-.28-.49-.43-.9-.43h-5.47c-.09.02-.14.04-.18.08ZM107.22,199c0-1.79.76-2.68,2.28-2.68h7.58c.68,0,1.59.51,2.71,1.53l2.46,2.23c.82,1.07,1.21,2.01,1.18,2.81-.04.8-.19,1.43-.45,1.88-.25.44-.6.77-1.05.98.13.05.35.22.65.5.3.27.56.62.8,1.05.23.44.36.94.38,1.51.01.57.03,1.17.03,1.78.25,3.51-1.35,5.17-4.79,4.97h-9.63c-1.42,0-2.13-.9-2.13-2.71v-13.85Z"/>
    <path class="cls-5" d="M125.02,205.95c0-1.37.25-2.65.75-3.84.51-1.19,1.22-2.22,2.11-3.11.9-.88,1.94-1.58,3.14-2.08,1.19-.51,2.46-.78,3.81-.78s2.65.26,3.84.78c1.2.5,2.24,1.2,3.11,2.08.88.89,1.59,1.93,2.11,3.11.53,1.19.8,2.47.8,3.84s-.27,2.65-.8,3.84c-.52,1.17-1.22,2.21-2.11,3.11-.87.89-1.91,1.58-3.11,2.08-1.19.5-2.47.75-3.84.75s-2.63-.25-3.81-.75c-1.19-.5-2.23-1.19-3.14-2.08-.89-.9-1.59-1.94-2.11-3.11-.5-1.19-.75-2.47-.75-3.84ZM130.41,206.03c0,.62.11,1.2.35,1.73.23.54.55,1,.95,1.41s.87.72,1.41.95c.55.22,1.13.33,1.73.33s1.19-.11,1.73-.33c.55-.23,1.03-.55,1.43-.95.41-.4.74-.87.98-1.41.23-.53.35-1.11.35-1.73s-.12-1.19-.35-1.73c-.24-.55-.56-1.03-.98-1.43-.4-.4-.88-.72-1.43-.95-.54-.25-1.12-.38-1.73-.38s-1.18.13-1.73.38c-.54.24-1,.55-1.41.95s-.72.88-.95,1.43c-.24.54-.35,1.12-.35,1.73Z"/>
    <path class="cls-5" d="M157.53,203.77v-2.53h-3.34c-1.66,0-2.48.8-2.48,2.38v.18c.1.1.33.16.7.18h4.52c.33-.03.53-.1.6-.2ZM157.5,209.01c-.1-.08-.36-.13-.78-.15v-.03h-4.47c-.27.02-.45.05-.55.1v3.79c0,.42-.08.8-.23,1.13-.14.34-.33.61-.58.83-.24.22-.51.39-.83.5-.32.12-.65.18-.98.18-.74,0-1.37-.23-1.91-.68-.52-.46-.78-1.12-.78-1.96v-8.03c-.02-5.53,2.47-8.36,7.45-8.46h6.3c1.74,0,2.6.89,2.58,2.66v14.03c0,.84-.26,1.48-.78,1.93-.52.45-1.14.68-1.86.68s-1.32-.23-1.83-.68c-.52-.45-.78-1.09-.78-1.93v-3.91Z"/>
    <path class="cls-5" d="M177.34,208.13l2.86,3.64c.53.69.7,1.34.5,1.96-.2.62-.59,1.12-1.15,1.48-.57.35-1.17.48-1.81.38-.64-.08-1.22-.46-1.76-1.15l-5.07-6.45c-.42-.66-.53-1.31-.33-1.93.11-.46.31-.86.6-1.18.01-.03.03-.06.05-.08.38-.36.87-.58,1.46-.63h2.31c.7.04,1.24.04,1.61.03l-2.56-2.79h-3.96c-.12.04-.2.08-.25.13v11.37h-.03c0,1.78-.89,2.66-2.66,2.66-1.61,0-2.41-.9-2.41-2.71v-13.85c0-1.79.76-2.68,2.28-2.68h7.7c.68,0,1.59.51,2.71,1.53l2.33,2.89c.82,1.09,1.21,2.03,1.18,2.81.01.25.01.47,0,.65v1.38c0,.85-.27,1.5-.8,1.93-.52.42-1.13.63-1.83.63h-.98Z"/>
    <path class="cls-5" d="M187.42,201.33l.03,9.58c.11.09.33.14.63.15h1.08v.03h4.44c.41,0,.72-.14.9-.43.18-.28.21-1.59.08-3.94l-3.49-5.52h-3.26c-.19.02-.32.06-.4.13ZM199.62,210.59c.25,3.51-1.33,5.17-4.74,4.97h-10.09c-1.41,0-2.11-.9-2.11-2.71v-7.05h-.03v-6.8c0-.35.06-.81.18-1.38.11-.56.49-.93,1.13-1.08.63-.15,1.12-.23,1.46-.23h6.3c.88-.05,1.96.64,3.21,2.06l3.41,5.02c.93,1.49,1.38,2.78,1.33,3.86l-.05,3.34Z"/>
  </g>
  <path class="cls-2" d="M33.52,77.96l-.13.18h-1.94v-14.63l1.03-1.1,3.11,3.29v10.11l-2.07,2.16ZM32.49,94.57l-1.03-1.1v-14.63h1.94l.13.18,2.07,2.15v10.11l-3.11,3.28ZM32.95,61.91l1.04-1.1h15.57l1.04,1.1-3.11,3.29h-11.43l-3.11-3.29ZM50.6,95.07l-1.04,1.1h-15.57l-1.04-1.1,3.11-3.28h11.43l3.11,3.28ZM51.06,62.41l1.03,1.1v14.63h-1.94l-.13-.14-2.07-2.15v-10.15l3.11-3.29ZM50.03,79.02l.13-.14h1.94v14.6l-1.03,1.1-3.11-3.28v-10.11l2.07-2.15Z"/>
  <path class="cls-2" d="M72.57,77.96l-.13.18h-1.94v-14.63l1.03-1.1,3.11,3.29v10.11l-2.07,2.16ZM71.54,94.57l-1.03-1.1v-14.63h1.94l.13.18,2.07,2.15v10.11l-3.11,3.28ZM72.01,61.91l1.04-1.1h15.57l1.04,1.1-3.11,3.29h-11.43l-3.11-3.29ZM89.65,95.07l-1.04,1.1h-15.57l-1.04-1.1,3.11-3.28h11.43l3.11,3.28ZM90.12,62.41l1.03,1.1v14.63h-1.94l-.13-.14-2.07-2.15v-10.15l3.11-3.29ZM89.08,79.02l.13-.14h1.94v14.6l-1.03,1.1-3.11-3.28v-10.11l2.07-2.15Z"/>
  <path class="cls-2" d="M126.8,77.96l-.13.18h-1.94v-14.63l1.03-1.1,3.11,3.29v10.11l-2.07,2.16ZM125.76,94.57l-1.03-1.1v-14.63h1.94l.13.18,2.07,2.15v10.11l-3.11,3.28ZM126.23,61.91l1.04-1.1h15.57l1.04,1.1-3.11,3.29h-11.43l-3.11-3.29ZM143.87,95.07l-1.04,1.1h-15.57l-1.04-1.1,3.11-3.28h11.43l3.11,3.28ZM144.34,62.41l1.03,1.1v14.63h-1.94l-.13-.14-2.07-2.15v-10.15l3.11-3.29ZM143.31,79.02l.13-.14h1.94v14.6l-1.03,1.1-3.11-3.28v-10.11l2.07-2.15Z"/>
  <path class="cls-2" d="M165.85,77.96l-.13.18h-1.94v-14.63l1.03-1.1,3.11,3.29v10.11l-2.07,2.16ZM164.82,94.57l-1.03-1.1v-14.63h1.94l.13.18,2.07,2.15v10.11l-3.11,3.28ZM165.29,61.91l1.04-1.1h15.57l1.04,1.1-3.11,3.29h-11.43l-3.11-3.29ZM182.93,95.07l-1.04,1.1h-15.57l-1.04-1.1,3.11-3.28h11.43l3.11,3.28ZM183.4,62.41l1.03,1.1v14.63h-1.94l-.13-.14-2.07-2.15v-10.15l3.11-3.29ZM182.36,79.02l.13-.14h1.94v14.6l-1.03,1.1-3.11-3.28v-10.11l2.07-2.15Z"/>
  <path class="cls-5" d="M65.28,24.93h85.41v22.57h-85.41v-22.57Z"/>
  <g class="cls-4">
    <path class="cls-3" d="M72.19,36.02l-.06.07h-.83v-5.96l.44-.45,1.34,1.34v4.12l-.89.88ZM73.08,41.36v.09l-1.34,1.34-.44-.45v-5.96h.83l.06.07.89.88v4.03ZM71.95,29.49l.45-.45h6.7l.45.45-1.34,1.34h-4.92l-1.34-1.34ZM79.54,42.99l-.45.45h-6.7l-.45-.45,1.34-1.34h4.92l1.34,1.34ZM78.18,35.35l.91.91-.88.88h-1.77l-.52-.89.52-.89h1.74ZM79.3,36.45l.06-.06h.83v5.94l-.44.45-1.34-1.34v-4.11l.89-.88Z"/>
    <path class="cls-3" d="M83.93,36.02l-.06.07h-.83v-5.96l.44-.45,1.34,1.34v4.12l-.89.88ZM84.82,41.36v.09l-1.34,1.34-.44-.45v-5.96h.83l.06.07.89.88v4.03ZM83.69,29.49l.45-.45h6.7l.45.45-1.34,1.34h-4.92l-1.34-1.34ZM86.79,35.35l.52.89-.52.89h-1.77l-.89-.89.89-.89h1.77ZM89.92,35.35l.91.91-.88.88h-1.77l-.52-.89.52-.89h1.74ZM91.48,29.69l.44.45v5.96h-.83l-.06-.06-.89-.88v-4.13l1.34-1.34ZM91.04,36.45l.06-.06h.83v5.94l-.44.45-1.34-1.34v-4.11l.89-.88Z"/>
    <path class="cls-3" d="M95.67,36.02l-.06.07h-.83v-5.96l.44-.45,1.34,1.34v4.12l-.89.88ZM96.56,41.36v.09l-1.34,1.34-.44-.45v-5.96h.83l.06.07.89.88v4.03ZM96.85,33.91v-2.79h.45l.75,1.29v2.65h-.53l-.66-1.15ZM100.11,39.56v1.8h-1.78v-3.28l.89-1.54.89,1.54v1.48ZM100.4,32.41l.75-1.29h.45v2.79l-.66,1.15h-.53v-2.65ZM103.22,29.69l.44.45v5.96h-.83l-.06-.06-.89-.88v-4.13l1.34-1.34ZM102.78,36.45l.06-.06h.83v5.94l-.44.45-1.34-1.34v-4.11l.89-.88Z"/>
    <path class="cls-3" d="M107.41,36.02l-.06.07h-.83v-5.96l.44-.45,1.34,1.34v4.12l-.89.88ZM108.3,41.36v.09l-1.34,1.34-.44-.45v-5.96h.83l.06.07.89.88v4.03ZM107.16,29.49l.45-.45h6.7l.45.45-1.34,1.34h-4.92l-1.34-1.34ZM114.76,42.99l-.45.45h-6.7l-.45-.45,1.34-1.34h4.92l1.34,1.34ZM110.27,35.35l.52.89-.52.89h-1.77l-.89-.89.89-.89h1.77ZM113.39,35.35l.91.91-.88.88h-1.77l-.52-.89.52-.89h1.74Z"/>
    <path class="cls-3" d="M124.9,36.02l-.06.07h-.83v-5.96l.44-.45,1.34,1.34v4.12l-.89.88ZM125.79,41.36v.09l-1.34,1.34-.44-.45v-5.96h.83l.06.07.89.88v4.03ZM124.66,29.49l.45-.45h6.7l.45.45-1.34,1.34h-4.92l-1.34-1.34ZM132.25,42.99l-.45.45h-6.7l-.45-.45,1.34-1.34h4.92l1.34,1.34ZM132.45,29.69l.44.45v5.96h-.83l-.06-.06-.89-.88v-4.13l1.34-1.34ZM132.01,36.45l.06-.06h.83v5.94l-.44.45-1.34-1.34v-4.11l.89-.88Z"/>
    <path class="cls-3" d="M136.64,36.02l-.06.07h-.83v-5.96l.44-.45,1.34,1.34v4.12l-.89.88ZM137.53,41.36v.09l-1.34,1.34-.44-.45v-5.96h.83l.06.07.89.88v4.03ZM137.82,33.91v-2.79h.45l.75,1.29v2.65h-.53l-.66-1.15ZM142.57,38.57v2.79h-.45l-.75-1.29v-2.65h.53l.66,1.15ZM144.19,29.69l.44.45v5.96h-.83l-.06-.06-.89-.88v-4.13l1.34-1.34ZM143.75,36.45l.06-.06h.83v5.94l-.44.45-1.34-1.34v-4.11l.89-.88Z"/>
  </g>
</svg>