<?xml version="1.0" encoding="UTF-8"?>
<svg id="Layer_1" data-name="Layer 1" xmlns="http://www.w3.org/2000/svg" xmlns:xlink="http://www.w3.org/1999/xlink" viewBox="0 0 432 126">
  <defs>
    <style>
      .cls-1 {
        fill: none;
      }

      .cls-2, .cls-3 {
        fill: #6f42c1;
      }

      .cls-2, .cls-4 {
        opacity: .35;
      }

      .cls-5 {
        clip-path: url(#clippath-1);
      }

      .cls-6 {
        clip-path: url(#clippath-2);
      }

      .cls-7 {
        fill: #fff;
      }

      .cls-8 {
        clip-path: url(#clippath);
      }
    </style>
    <clipPath id="clippath">
      <rect class="cls-1" x="1.93" y="15.06" width="184.21" height="103.98"/>
    </clipPath>
    <clipPath id="clippath-1">
      <rect class="cls-7" x="23.42" y="6.4" width="9.39" height="21.5"/>
    </clipPath>
    <clipPath id="clippath-2">
      <rect class="cls-7" x="154.84" y="6.4" width="9.39" height="21.5"/>
    </clipPath>
  </defs>
  <g class="cls-8">
    <path class="cls-7" d="M178.75,23.29v88.33H9.32V23.29h169.43ZM186.14,15.92H1.93v103.09h184.2V15.92Z"/>
  </g>
  <path class="cls-7" d="M14.81,59.04h30.23v46.24H14.81v-46.24Z"/>
  <path class="cls-7" d="M52.85,59.04h30.23v46.24h-30.23v-46.24Z"/>
  <path class="cls-7" d="M105.68,59.04h30.23v46.24h-30.23v-46.24Z"/>
  <path class="cls-7" d="M143.73,59.04h30.23v46.24h-30.23v-46.24Z"/>
  <path class="cls-7" d="M88.65,69.04h11.59v11.56h-11.59v-11.56Z"/>
  <path class="cls-7" d="M88.65,86.11h11.59v11.56h-11.59v-11.56Z"/>
  <g>
    <rect class="cls-7" x="23.42" y="6.4" width="9.39" height="21.5"/>
    <g class="cls-5">
      <path class="cls-7" d="M23.55,6.44h9.07v20.91h-9.07V6.44Z"/>
    </g>
  </g>
  <g>
    <rect class="cls-7" x="154.84" y="6.4" width="9.39" height="21.5"/>
    <g class="cls-6">
      <path class="cls-7" d="M154.85,6.44h9.07v20.91h-9.07V6.44Z"/>
    </g>
  </g>
  <g>
    <g>
      <path class="cls-7" d="M233.5,67.67v9.17c0,3.18-.97,5.59-2.9,7.22-1.92,1.61-4.15,2.42-6.7,2.42s-4.95-.81-6.84-2.42c-1.88-1.62-2.82-4.03-2.82-7.22V25.32c0-3.06.93-5.42,2.82-7.07,1.9-1.67,4.18-2.5,6.84-2.5s4.78.83,6.7,2.5c1.93,1.65,2.9,4.01,2.9,7.07v16.5l15.84-22.37c.93-1.39,1.9-2.36,2.88-2.9.99-.53,2.51-.81,4.54-.81,3.22,0,5.7.92,7.45,2.76,1.74,1.83,2.62,4.13,2.62,6.9,0,1.15-.17,2.26-.49,3.31-.33,1.04-.89,1.97-1.7,2.79l-10.72,12.08h9.6c6.34,0,9.53,3.24,9.57,9.72l.06,23.89c0,3.05-.95,5.41-2.85,7.07s-4.14,2.5-6.73,2.5-4.85-.82-6.79-2.47c-1.92-1.67-2.88-4.03-2.88-7.1l-.06-16.13c-.42-.24-1.18-.41-2.27-.49h-12.05l-6.04,7.1Z"/>
      <path class="cls-7" d="M298.82,76.84c0,3.18-.96,5.59-2.88,7.22-1.9,1.61-4.14,2.42-6.73,2.42s-4.95-.81-6.84-2.42c-1.9-1.62-2.85-4.03-2.85-7.22V25.32c0-3.06.95-5.42,2.85-7.07,1.9-1.67,4.18-2.5,6.84-2.5s4.83.83,6.73,2.5c1.91,1.65,2.88,4.01,2.88,7.07v51.53Z"/>
      <path class="cls-7" d="M324.22,34.32l.09,34.91c.42.25,1.19.43,2.33.55h3.88v.03h16.19c1.47,0,2.57-.52,3.31-1.55.67-1.04.75-5.81.23-14.32l-12.68-20.1h-11.9c-.63.1-1.11.26-1.44.49ZM368.65,67.96c.9,12.82-4.86,18.86-17.28,18.11h-36.72c-5.16,0-7.73-3.29-7.73-9.86v-25.68h-.03v-24.73c0-1.27.21-2.94.63-5.03.42-2.08,1.79-3.39,4.11-3.91,2.34-.53,4.1-.81,5.29-.81h22.94c3.2-.21,7.1,2.29,11.7,7.48l12.42,18.26c3.39,5.43,4.98,10.11,4.77,14.06l-.12,12.11Z"/>
      <path class="cls-7" d="M430.35,77.88c0,5.46-3.22,8.19-9.66,8.19h-36.17c-1.6,0-2.99-.27-4.2-.83-1.19-.58-2.18-1.3-2.96-2.19-.79-.9-1.39-1.93-1.81-3.11-.4-1.16-.6-2.37-.6-3.62s.2-2.39.6-3.54c.42-1.15,1.04-2.17,1.87-3.08.82-.9,1.85-1.62,3.08-2.19,1.22-.55,2.63-.83,4.23-.83h24.96c2.62,0,3.92-.37,3.91-1.12-.02-.76-.03-1.59-.03-2.47,0-.93,0-1.8.03-2.59.01-.81-1.29-1.21-3.91-1.21h-25.5c-3.26,0-5.81-.6-7.65-1.81-1.83-1.21-2.77-3.77-2.85-7.71-.25-4.56.55-9.96,2.42-16.22,1.85-6.27,5.44-10.75,10.75-13.46,5.3-2.7,11.11-4.05,17.4-4.05h14.32c1.65,0,3.11.29,4.37.86,1.27.56,2.31,1.29,3.16,2.19.86.88,1.51,1.91,1.96,3.08.44,1.15.66,2.33.66,3.54s-.14,2.21-.43,3.08c-.27.86-.83,1.77-1.7,2.7-.85.94-1.92,1.7-3.22,2.27-1.29.56-2.75.83-4.4.83h-21.56c-1.98,0-3.42.58-4.34,1.73-.91,1.15-1.47,2.27-1.7,3.36s-.02,1.89.63,2.39c.65.48,1.64.72,2.96.72h24.53c7.03,0,10.62,1.72,10.75,5.15.15,3.41.19,13.39.12,29.93Z"/>
    </g>
    <g>
      <path class="cls-7" d="M222.48,112.77h8.25c.93,0,1.65.3,2.13.89.5.6.75,1.31.75,2.13s-.25,1.55-.75,2.16c-.48.6-1.19.89-2.13.89h-12.54c-1.98,0-2.96-1.01-2.96-3.05l-.03-7.82.09-1.35c.09-.92.3-1.83.63-2.73.46-1.34,1.16-2.53,2.13-3.57.98-1.05,2.16-1.9,3.57-2.56,1.42-.65,3.09-.98,5.03-.98h3.28c.5,0,.93.1,1.32.29.38.17.7.4.98.69.27.29.47.62.6.98.13.37.2.75.2,1.15s-.07.8-.2,1.18c-.14.37-.34.69-.6.98-.27.29-.6.52-.98.69-.39.17-.83.26-1.32.26h-3.77c-.85,0-1.58.14-2.21.4-.63.27-1.17.69-1.61,1.27-.45.58-.72,1.48-.83,2.7-.1,1.21-.12,2.76-.06,4.66.07.48.42.73,1.04.75Z"/>
      <path class="cls-7" d="M248.18,110.73s-.05,0-.09-.03h-6.87v5.23c0,1-.31,1.75-.92,2.27-.6.5-1.31.75-2.13.75s-1.54-.24-2.13-.75c-.6-.52-.89-1.27-.89-2.27v-16.22c0-.98.29-1.73.89-2.24.59-.52,1.3-.78,2.13-.78s1.53.26,2.13.78c.61.52.92,1.27.92,2.24v5.09c.09.08.26.14.49.17h6.21c.09-.01.18-.04.26-.09v-5.18c0-.98.29-1.73.89-2.24.59-.52,1.29-.78,2.1-.78s1.54.26,2.16.78c.61.52.92,1.27.92,2.24v16.22c0,1-.31,1.75-.92,2.27-.62.5-1.34.75-2.16.75s-1.51-.24-2.1-.75c-.6-.52-.89-1.27-.89-2.27v-5.2Z"/>
      <path class="cls-7" d="M255.86,107.83c0-1.57.29-3.03.86-4.4.59-1.36,1.39-2.54,2.42-3.57,1.04-1.01,2.23-1.81,3.59-2.39,1.36-.59,2.82-.89,4.37-.89s3.03.3,4.4.89c1.38.58,2.57,1.37,3.57,2.39,1.01,1.02,1.82,2.21,2.42,3.57.61,1.37.92,2.83.92,4.4s-.31,3.04-.92,4.4c-.6,1.34-1.4,2.53-2.42,3.57-1,1.02-2.19,1.81-3.57,2.39-1.37.58-2.83.86-4.4.86s-3.01-.29-4.37-.86c-1.37-.58-2.56-1.37-3.59-2.39-1.02-1.04-1.83-2.22-2.42-3.57-.58-1.36-.86-2.82-.86-4.4ZM262.04,107.91c0,.71.13,1.37.4,1.98.27.62.63,1.15,1.09,1.61s.99.83,1.61,1.09c.63.25,1.29.37,1.98.37s1.37-.12,1.98-.37c.63-.27,1.18-.63,1.64-1.09.47-.46.85-.99,1.12-1.61.27-.61.4-1.27.4-1.98s-.14-1.37-.4-1.98c-.27-.63-.65-1.18-1.12-1.64-.46-.46-1.01-.82-1.64-1.09-.62-.29-1.28-.43-1.98-.43s-1.35.14-1.98.43c-.62.27-1.15.63-1.61,1.09s-.83,1.01-1.09,1.64c-.27.62-.4,1.28-.4,1.98Z"/>
      <path class="cls-7" d="M294.95,110.33l3.28,4.17c.61.79.81,1.54.58,2.24-.23.71-.68,1.28-1.32,1.7-.65.4-1.34.55-2.07.43-.73-.09-1.4-.53-2.01-1.32l-5.81-7.39c-.48-.76-.6-1.5-.37-2.21.13-.53.36-.98.69-1.35.01-.04.04-.06.06-.09.44-.42.99-.66,1.67-.72h2.65c.81.04,1.42.05,1.84.03l-2.93-3.19h-4.54c-.14.04-.23.09-.29.14v13.03h-.03c0,2.03-1.02,3.05-3.05,3.05-1.84,0-2.76-1.04-2.76-3.11v-15.87c0-2.05.87-3.08,2.62-3.08h8.83c.78,0,1.82.59,3.11,1.75l2.67,3.31c.93,1.25,1.39,2.32,1.35,3.22.01.29.01.54,0,.75v1.58c0,.98-.31,1.72-.92,2.21-.6.48-1.29.72-2.1.72h-1.12Z"/>
      <path class="cls-7" d="M308.41,112.74h7.59c.96,0,1.7.3,2.21.89.53.6.81,1.31.81,2.13s-.27,1.57-.81,2.19c-.52.6-1.26.89-2.21.89h-11.88c-1.32,0-2.21-.45-2.67-1.35-.27-.46-.4-1.04-.4-1.73v-15.9c0-2.05,1.01-3.08,3.02-3.08h11.85c.96,0,1.7.31,2.24.92.53.62.81,1.34.81,2.16s-.27,1.57-.81,2.19c-.54.6-1.29.89-2.24.89h-7.48c-.65.02-1.06.35-1.21.98v.37c.12.48.46.74,1.04.78h6.3c.96,0,1.68.29,2.19.86.5.58.75,1.26.75,2.04s-.25,1.47-.75,2.04c-.5.58-1.23.86-2.19.86h-6.58c-.52.04-.82.34-.89.89v.37c.15.48.59.68,1.32.6Z"/>
      <path class="cls-7" d="M327,105.78h5.58c.4,0,.83-.27,1.29-.83l-2.39-2.33h-4.83v3.08c.09.04.21.07.35.09ZM326.66,110.79v2.93h6.47c.47,0,.82-.16,1.04-.49.23-.32.35-.67.35-1.04s-.12-.7-.35-1.01c-.22-.32-.56-.49-1.04-.49h-6.27c-.1.02-.17.05-.2.09ZM320.82,99.86c0-2.05.87-3.08,2.62-3.08h8.68c.78,0,1.82.59,3.11,1.75l2.82,2.56c.93,1.23,1.39,2.3,1.35,3.22-.04.92-.22,1.64-.52,2.16-.29.5-.69.88-1.21,1.12.15.06.4.25.75.58.35.31.65.71.92,1.21.27.5.41,1.08.43,1.73.01.65.03,1.34.03,2.04.29,4.03-1.55,5.92-5.49,5.69h-11.04c-1.63,0-2.44-1.04-2.44-3.11v-15.87Z"/>
      <path class="cls-7" d="M341.22,107.83c0-1.57.29-3.03.86-4.4.59-1.36,1.39-2.54,2.42-3.57,1.04-1.01,2.23-1.81,3.59-2.39,1.36-.59,2.82-.89,4.37-.89s3.03.3,4.4.89c1.38.58,2.57,1.37,3.57,2.39,1.01,1.02,1.82,2.21,2.42,3.57.61,1.37.92,2.83.92,4.4s-.31,3.04-.92,4.4c-.6,1.34-1.4,2.53-2.42,3.57-1,1.02-2.19,1.81-3.57,2.39-1.37.58-2.83.86-4.4.86s-3.01-.29-4.37-.86c-1.37-.58-2.56-1.37-3.59-2.39-1.02-1.04-1.83-2.22-2.42-3.57-.58-1.36-.86-2.82-.86-4.4ZM347.4,107.91c0,.71.13,1.37.4,1.98.27.62.63,1.15,1.09,1.61s.99.83,1.61,1.09c.63.25,1.29.37,1.98.37s1.37-.12,1.98-.37c.63-.27,1.18-.63,1.64-1.09.47-.46.85-.99,1.12-1.61.27-.61.4-1.27.4-1.98s-.14-1.37-.4-1.98c-.27-.63-.65-1.18-1.12-1.64-.46-.46-1.01-.82-1.64-1.09-.62-.29-1.28-.43-1.98-.43s-1.35.14-1.98.43c-.62.27-1.15.63-1.61,1.09s-.83,1.01-1.09,1.64c-.27.62-.4,1.28-.4,1.98Z"/>
      <path class="cls-7" d="M378.48,105.32v-2.9h-3.82c-1.9,0-2.85.91-2.85,2.73v.2c.12.12.38.19.81.2h5.18c.38-.04.61-.12.69-.23ZM378.45,111.33c-.12-.09-.42-.15-.89-.17v-.03h-5.12c-.31.02-.52.06-.63.12v4.34c0,.48-.09.91-.26,1.29-.16.39-.37.7-.66.95-.27.25-.59.45-.95.58-.37.14-.74.2-1.12.2-.85,0-1.57-.26-2.19-.78-.6-.53-.89-1.28-.89-2.24v-9.2c-.02-6.34,2.82-9.57,8.54-9.69h7.22c1.99,0,2.98,1.02,2.96,3.05v16.07c0,.96-.3,1.7-.89,2.21-.6.52-1.31.78-2.13.78s-1.51-.26-2.1-.78c-.6-.52-.89-1.25-.89-2.21v-4.49Z"/>
      <path class="cls-7" d="M401.18,110.33l3.28,4.17c.61.79.81,1.54.58,2.24-.23.71-.68,1.28-1.32,1.7-.65.4-1.34.55-2.07.43-.73-.09-1.4-.53-2.01-1.32l-5.81-7.39c-.48-.76-.6-1.5-.37-2.21.13-.53.36-.98.69-1.35.01-.04.04-.06.06-.09.44-.42.99-.66,1.67-.72h2.65c.81.04,1.42.05,1.84.03l-2.93-3.19h-4.54c-.14.04-.23.09-.29.14v13.03h-.03c0,2.03-1.02,3.05-3.05,3.05-1.84,0-2.76-1.04-2.76-3.11v-15.87c0-2.05.87-3.08,2.62-3.08h8.83c.78,0,1.82.59,3.11,1.75l2.67,3.31c.93,1.25,1.39,2.32,1.35,3.22.01.29.01.54,0,.75v1.58c0,.98-.31,1.72-.92,2.21-.6.48-1.29.72-2.1.72h-1.12Z"/>
      <path class="cls-7" d="M412.74,102.54l.03,10.98c.13.1.37.16.72.17h1.24v.03h5.09c.47,0,.82-.16,1.04-.49.21-.32.24-1.83.09-4.51l-4-6.33h-3.74c-.22.02-.37.07-.46.14ZM426.71,113.14c.29,4.03-1.52,5.92-5.43,5.69h-11.56c-1.61,0-2.42-1.04-2.42-3.11v-8.08h-.03v-7.79c0-.4.06-.93.2-1.58.13-.65.56-1.06,1.29-1.24.73-.17,1.28-.26,1.67-.26h7.22c1.01-.06,2.24.73,3.68,2.36l3.91,5.75c1.07,1.71,1.58,3.18,1.52,4.43l-.06,3.82Z"/>
    </g>
  </g>
  <path class="cls-2" d="M21.88,81.64l-.13.17h-1.89v-14.26l1.01-1.07,3.03,3.2v9.85l-2.02,2.1ZM20.87,97.82l-1.01-1.07v-14.26h1.89l.13.17,2.02,2.1v9.85l-3.03,3.2ZM21.33,66l1.01-1.07h15.17l1.01,1.07-3.03,3.2h-11.13l-3.03-3.2ZM38.52,98.3l-1.01,1.07h-15.17l-1.01-1.07,3.03-3.2h11.13l3.03,3.2ZM38.97,66.49l1.01,1.07v14.26h-1.89l-.13-.14-2.02-2.1v-9.88l3.03-3.2ZM37.96,82.67l.13-.14h1.89v14.22l-1.01,1.07-3.03-3.2v-9.85l2.02-2.1Z"/>
  <path class="cls-2" d="M59.93,81.64l-.13.17h-1.89v-14.26l1.01-1.07,3.03,3.2v9.85l-2.02,2.1ZM58.92,97.82l-1.01-1.07v-14.26h1.89l.13.17,2.02,2.1v9.85l-3.03,3.2ZM59.38,66l1.01-1.07h15.17l1.01,1.07-3.03,3.2h-11.13l-3.03-3.2ZM76.57,98.3l-1.01,1.07h-15.17l-1.01-1.07,3.03-3.2h11.13l3.03,3.2ZM77.02,66.49l1.01,1.07v14.26h-1.89l-.13-.14-2.02-2.1v-9.88l3.03-3.2ZM76.01,82.67l.13-.14h1.89v14.22l-1.01,1.07-3.03-3.2v-9.85l2.02-2.1Z"/>
  <path class="cls-2" d="M112.76,81.64l-.13.17h-1.89v-14.26l1.01-1.07,3.03,3.2v9.85l-2.02,2.1ZM111.75,97.82l-1.01-1.07v-14.26h1.89l.13.17,2.02,2.1v9.85l-3.03,3.2ZM112.2,66l1.01-1.07h15.17l1.01,1.07-3.03,3.2h-11.13l-3.03-3.2ZM129.39,98.3l-1.01,1.07h-15.17l-1.01-1.07,3.03-3.2h11.13l3.03,3.2ZM129.85,66.49l1.01,1.07v14.26h-1.89l-.13-.14-2.02-2.1v-9.88l3.03-3.2ZM128.84,82.67l.13-.14h1.89v14.22l-1.01,1.07-3.03-3.2v-9.85l2.02-2.1Z"/>
  <path class="cls-2" d="M150.81,81.64l-.13.17h-1.89v-14.26l1.01-1.07,3.03,3.2v9.85l-2.02,2.1ZM149.8,97.82l-1.01-1.07v-14.26h1.89l.13.17,2.02,2.1v9.85l-3.03,3.2ZM150.25,66l1.01-1.07h15.17l1.01,1.07-3.03,3.2h-11.13l-3.03-3.2ZM167.44,98.3l-1.01,1.07h-15.17l-1.01-1.07,3.03-3.2h11.13l3.03,3.2ZM167.9,66.49l1.01,1.07v14.26h-1.89l-.13-.14-2.02-2.1v-9.88l3.03-3.2ZM166.89,82.67l.13-.14h1.89v14.22l-1.01,1.07-3.03-3.2v-9.85l2.02-2.1Z"/>
  <path class="cls-7" d="M52.11,29.88h83.73v22.13H52.11v-22.13Z"/>
  <g class="cls-4">
    <path class="cls-3" d="M58.88,40.76l-.06.07h-.82v-5.84l.44-.44,1.31,1.31v4.03l-.87.86ZM59.76,45.99v.08l-1.31,1.31-.44-.44v-5.84h.82l.06.07.87.86v3.95ZM58.64,34.35l.44-.44h6.57l.44.44-1.31,1.31h-4.82l-1.31-1.31ZM66.09,47.58l-.44.44h-6.57l-.44-.44,1.31-1.31h4.82l1.31,1.31ZM64.75,40.09l.89.89-.86.86h-1.74l-.51-.87.51-.87h1.71ZM65.85,41.18l.06-.06h.82v5.82l-.44.44-1.31-1.31v-4.03l.87-.86Z"/>
    <path class="cls-3" d="M70.39,40.76l-.06.07h-.82v-5.84l.44-.44,1.31,1.31v4.03l-.87.86ZM71.26,45.99v.08l-1.31,1.31-.44-.44v-5.84h.82l.06.07.87.86v3.95ZM70.15,34.35l.44-.44h6.57l.44.44-1.31,1.31h-4.82l-1.31-1.31ZM73.2,40.09l.51.87-.51.87h-1.74l-.87-.87.87-.87h1.74ZM76.26,40.09l.89.89-.86.86h-1.74l-.51-.87.51-.87h1.71ZM77.79,34.55l.44.44v5.84h-.82l-.06-.06-.87-.86v-4.05l1.31-1.31ZM77.36,41.18l.06-.06h.82v5.82l-.44.44-1.31-1.31v-4.03l.87-.86Z"/>
    <path class="cls-3" d="M81.9,40.76l-.06.07h-.82v-5.84l.44-.44,1.31,1.31v4.03l-.87.86ZM82.77,45.99v.08l-1.31,1.31-.44-.44v-5.84h.82l.06.07.87.86v3.95ZM83.05,38.68v-2.74h.44l.73,1.27v2.59h-.52l-.65-1.13ZM86.25,44.22v1.76h-1.75v-3.21l.87-1.51.87,1.51v1.45ZM86.54,37.22l.73-1.27h.44v2.74l-.65,1.13h-.52v-2.59ZM89.3,34.55l.44.44v5.84h-.82l-.06-.06-.87-.86v-4.05l1.31-1.31ZM88.86,41.18l.06-.06h.82v5.82l-.44.44-1.31-1.31v-4.03l.87-.86Z"/>
    <path class="cls-3" d="M93.4,40.76l-.06.07h-.82v-5.84l.44-.44,1.31,1.31v4.03l-.87.86ZM94.28,45.99v.08l-1.31,1.31-.44-.44v-5.84h.82l.06.07.87.86v3.95ZM93.16,34.35l.44-.44h6.57l.44.44-1.31,1.31h-4.82l-1.31-1.31ZM100.61,47.58l-.44.44h-6.57l-.44-.44,1.31-1.31h4.82l1.31,1.31ZM96.21,40.09l.51.87-.51.87h-1.74l-.87-.87.87-.87h1.74ZM99.27,40.09l.89.89-.86.86h-1.74l-.51-.87.51-.87h1.71Z"/>
    <path class="cls-3" d="M110.55,40.76l-.06.07h-.82v-5.84l.44-.44,1.31,1.31v4.03l-.87.86ZM111.43,45.99v.08l-1.31,1.31-.44-.44v-5.84h.82l.06.07.87.86v3.95ZM110.31,34.35l.44-.44h6.57l.44.44-1.31,1.31h-4.82l-1.31-1.31ZM117.76,47.58l-.44.44h-6.57l-.44-.44,1.31-1.31h4.82l1.31,1.31ZM117.96,34.55l.44.44v5.84h-.82l-.06-.06-.87-.86v-4.05l1.31-1.31ZM117.52,41.18l.06-.06h.82v5.82l-.44.44-1.31-1.31v-4.03l.87-.86Z"/>
    <path class="cls-3" d="M122.06,40.76l-.06.07h-.82v-5.84l.44-.44,1.31,1.31v4.03l-.87.86ZM122.93,45.99v.08l-1.31,1.31-.44-.44v-5.84h.82l.06.07.87.86v3.95ZM123.21,38.68v-2.74h.44l.73,1.27v2.59h-.52l-.65-1.13ZM127.87,43.25v2.74h-.44l-.73-1.27v-2.59h.52l.65,1.13ZM129.46,34.55l.44.44v5.84h-.82l-.06-.06-.87-.86v-4.05l1.31-1.31ZM129.03,41.18l.06-.06h.82v5.82l-.44.44-1.31-1.31v-4.03l.87-.86Z"/>
  </g>
</svg>